<?xml version="1.0" encoding="utf-8"?>
<!-- Generator: Adobe Illustrator 22.0.0, SVG Export Plug-In . SVG Version: 6.00 Build 0)  -->
<svg version="1.1" id="Layer_1" xmlns="http://www.w3.org/2000/svg" xmlns:xlink="http://www.w3.org/1999/xlink" x="0px" y="0px"
	 viewBox="0 0 2048 2048" style="enable-background:new 0 0 2048 2048;" xml:space="preserve">
<style type="text/css">
	.st0{fill:#E0E0E0;}
	.st1{fill:#FF0084;}
	.st2{fill:#1D75CE;}
</style>
<g id="Layer_x0020_1">
	<g id="_337151272">
		<path id="_251374848" class="st0" d="M297.7,0h1452.7C1914,0,2048,134,2048,297.7v1452.7c0,163.7-134,297.7-297.7,297.7H297.7
			C134,2048,0,1914,0,1750.3V297.7C0,134,134,0,297.7,0L297.7,0z"/>
		<path id="_251374776" class="st1" d="M1245.1,1261.4c-63-63-102-150.1-102-246.3c0-96.2,39-183.3,102-246.3
			c63-63,150.1-102,246.3-102h0c96.2,0,183.2,39,246.3,102c63,63,102,150.1,102,246.3v0c0,96.2-39,183.2-102,246.3
			c-63,63-150.1,102-246.3,102C1395.2,1363.4,1308.1,1324.4,1245.1,1261.4L1245.1,1261.4z"/>
		<path id="_251375088" class="st2" d="M387.8,1261.4c-63-63-102-150.1-102-246.3c0-96.2,39-183.3,102-246.3
			c63-63,150.1-102,246.3-102h0c96.2,0,183.2,39,246.3,102c63,63,102,150.1,102,246.3v0c0,96.2-39,183.2-102,246.3
			c-63,63-150.1,102-246.3,102C537.9,1363.4,450.8,1324.4,387.8,1261.4L387.8,1261.4z"/>
	</g>
</g>
</svg>
